# xmcd
#
# Track frame offsets: 
#        150
#        18577
#        36997
#        55425
#
# Disc length: 982 seconds
#
# Revision: 0
# Processed by: cddbd v1.5.2PL0 Copyright (c) Steve Scherf et al.
# Submitted via: ExactAudioCopyFreeDBPlugin 1.0
#
DISCID=3203d404
DTITLE=R. Kelly - Hair Braider
DYEAR=2008
DGENRE=R&B
TTITLE0=Hair Braider (Clean Version)
TTITLE1=Hair Braider (Album Version)
TTITLE2=Hair Braider (Instrumental)
TTITLE3=Hair Braider (A Cappella)
EXTD=
EXTT0=
EXTT1=
EXTT2=
EXTT3=
PLAYORDER=
